<svg width="255" height="289" viewBox="0 0 255 289" fill="none" xmlns="http://www.w3.org/2000/svg">
<g clip-path="url(#clip0_506_11)">
<path d="M127.344 289.088L23.1623 260.166L-0.0546875 -0.234375H255.055L231.814 260.126L127.344 289.088Z" fill="#264DE4"/>
<path d="M204.492 244.014L223.389 23.8096H124.17V267.176L204.492 244.014Z" fill="#2965F1"/>
<path d="M53.4447 119.397L56.1678 151.006H124.17V119.397H53.4447ZM47.9717 55.4199L50.7339 87.0288H124.17V55.4199H47.9717ZM124.17 201.489L124.037 201.525L90.1942 192.02L88.0305 166.811H57.5256L61.7826 216.441L124.03 234.415L124.17 234.375V201.489Z" fill="#EBEBEB"/>
<path d="M194.7 119.397L200.186 55.4199H124.064V87.0288H166.883L164.118 119.397H124.064V151.006H161.484L157.956 192L124.063 201.515V234.4L186.361 216.441L186.817 211.101L193.959 127.885L194.7 119.397Z" fill="white"/>
</g>
<defs>
<clipPath id="clip0_506_11">
<rect width="255" height="289" fill="white"/>
</clipPath>
</defs>
</svg>
